<svg width="187" height="58" viewBox="0 0 187 58" fill="none" xmlns="http://www.w3.org/2000/svg">
<path d="M1.992 38V21.2H10.2C12.312 21.2 13.896 21.6 14.952 22.4C16.024 23.2 16.56 24.256 16.56 25.568C16.56 26.448 16.344 27.216 15.912 27.872C15.48 28.512 14.888 29.008 14.136 29.36C13.384 29.712 12.52 29.888 11.544 29.888L12 28.904C13.056 28.904 13.992 29.08 14.808 29.432C15.624 29.768 16.256 30.272 16.704 30.944C17.168 31.616 17.4 32.44 17.4 33.416C17.4 34.856 16.832 35.984 15.696 36.8C14.56 37.6 12.888 38 10.68 38H1.992ZM5.856 35.072H10.392C11.4 35.072 12.16 34.912 12.672 34.592C13.2 34.256 13.464 33.728 13.464 33.008C13.464 32.304 13.2 31.784 12.672 31.448C12.16 31.096 11.4 30.92 10.392 30.92H5.568V28.088H9.72C10.664 28.088 11.384 27.928 11.88 27.608C12.392 27.272 12.648 26.768 12.648 26.096C12.648 25.44 12.392 24.952 11.88 24.632C11.384 24.296 10.664 24.128 9.72 24.128H5.856V35.072ZM28.0996 38V35.48L27.8596 34.928V30.416C27.8596 29.616 27.6116 28.992 27.1156 28.544C26.6356 28.096 25.8916 27.872 24.8836 27.872C24.1956 27.872 23.5156 27.984 22.8436 28.208C22.1876 28.416 21.6276 28.704 21.1636 29.072L19.8196 26.456C20.5236 25.96 21.3716 25.576 22.3636 25.304C23.3556 25.032 24.3636 24.896 25.3876 24.896C27.3556 24.896 28.8836 25.36 29.9716 26.288C31.0596 27.216 31.6036 28.664 31.6036 30.632V38H28.0996ZM24.1636 38.192C23.1556 38.192 22.2916 38.024 21.5716 37.688C20.8516 37.336 20.2996 36.864 19.9156 36.272C19.5316 35.68 19.3396 35.016 19.3396 34.28C19.3396 33.512 19.5236 32.84 19.8916 32.264C20.2756 31.688 20.8756 31.24 21.6916 30.92C22.5076 30.584 23.5716 30.416 24.8836 30.416H28.3156V32.6H25.2916C24.4116 32.6 23.8036 32.744 23.4676 33.032C23.1476 33.32 22.9876 33.68 22.9876 34.112C22.9876 34.592 23.1716 34.976 23.5396 35.264C23.9236 35.536 24.4436 35.672 25.0996 35.672C25.7236 35.672 26.2836 35.528 26.7796 35.24C27.2756 34.936 27.6356 34.496 27.8596 33.92L28.4356 35.648C28.1636 36.48 27.6676 37.112 26.9476 37.544C26.2276 37.976 25.2996 38.192 24.1636 38.192ZM42.9401 24.896C43.9641 24.896 44.8761 25.104 45.6761 25.52C46.4921 25.92 47.1321 26.544 47.5961 27.392C48.0601 28.224 48.2921 29.296 48.2921 30.608V38H44.5481V31.184C44.5481 30.144 44.3161 29.376 43.8521 28.88C43.4041 28.384 42.7641 28.136 41.9321 28.136C41.3401 28.136 40.8041 28.264 40.3241 28.52C39.8601 28.76 39.4921 29.136 39.2201 29.648C38.9641 30.16 38.8361 30.816 38.8361 31.616V38H35.0921V25.088H38.6681V28.664L37.9961 27.584C38.4601 26.72 39.1241 26.056 39.9881 25.592C40.8521 25.128 41.8361 24.896 42.9401 24.896ZM57.4236 38.192C56.2076 38.192 55.1116 37.92 54.1356 37.376C53.1596 36.816 52.3836 36.04 51.8076 35.048C51.2476 34.056 50.9676 32.888 50.9676 31.544C50.9676 30.184 51.2476 29.008 51.8076 28.016C52.3836 27.024 53.1596 26.256 54.1356 25.712C55.1116 25.168 56.2076 24.896 57.4236 24.896C58.5116 24.896 59.4636 25.136 60.2796 25.616C61.0956 26.096 61.7276 26.824 62.1756 27.8C62.6236 28.776 62.8476 30.024 62.8476 31.544C62.8476 33.048 62.6316 34.296 62.1996 35.288C61.7676 36.264 61.1436 36.992 60.3276 37.472C59.5276 37.952 58.5596 38.192 57.4236 38.192ZM58.0716 35.12C58.6796 35.12 59.2316 34.976 59.7276 34.688C60.2236 34.4 60.6156 33.992 60.9036 33.464C61.2076 32.92 61.3596 32.28 61.3596 31.544C61.3596 30.792 61.2076 30.152 60.9036 29.624C60.6156 29.096 60.2236 28.688 59.7276 28.4C59.2316 28.112 58.6796 27.968 58.0716 27.968C57.4476 27.968 56.8876 28.112 56.3916 28.4C55.8956 28.688 55.4956 29.096 55.1916 29.624C54.9036 30.152 54.7596 30.792 54.7596 31.544C54.7596 32.28 54.9036 32.92 55.1916 33.464C55.4956 33.992 55.8956 34.4 56.3916 34.688C56.8876 34.976 57.4476 35.12 58.0716 35.12ZM61.4556 38V35.36L61.5276 31.52L61.2876 27.704V20.192H65.0316V38H61.4556ZM76.5168 38V35.48L76.2768 34.928V30.416C76.2768 29.616 76.0288 28.992 75.5328 28.544C75.0528 28.096 74.3088 27.872 73.3008 27.872C72.6128 27.872 71.9328 27.984 71.2608 28.208C70.6048 28.416 70.0448 28.704 69.5808 29.072L68.2368 26.456C68.9408 25.96 69.7888 25.576 70.7808 25.304C71.7728 25.032 72.7808 24.896 73.8048 24.896C75.7728 24.896 77.3008 25.36 78.3888 26.288C79.4768 27.216 80.0208 28.664 80.0208 30.632V38H76.5168ZM72.5808 38.192C71.5728 38.192 70.7088 38.024 69.9888 37.688C69.2688 37.336 68.7168 36.864 68.3328 36.272C67.9488 35.68 67.7568 35.016 67.7568 34.28C67.7568 33.512 67.9408 32.84 68.3088 32.264C68.6928 31.688 69.2928 31.24 70.1088 30.92C70.9248 30.584 71.9888 30.416 73.3008 30.416H76.7328V32.6H73.7088C72.8288 32.6 72.2208 32.744 71.8848 33.032C71.5648 33.32 71.4048 33.68 71.4048 34.112C71.4048 34.592 71.5888 34.976 71.9568 35.264C72.3408 35.536 72.8608 35.672 73.5168 35.672C74.1408 35.672 74.7008 35.528 75.1968 35.24C75.6928 34.936 76.0528 34.496 76.2768 33.92L76.8528 35.648C76.5808 36.48 76.0848 37.112 75.3648 37.544C74.6448 37.976 73.7168 38.192 72.5808 38.192ZM89.675 42.848C88.459 42.848 87.283 42.696 86.147 42.392C85.027 42.104 84.091 41.664 83.339 41.072L84.827 38.384C85.371 38.832 86.059 39.184 86.891 39.44C87.739 39.712 88.571 39.848 89.387 39.848C90.715 39.848 91.675 39.552 92.267 38.96C92.875 38.368 93.179 37.488 93.179 36.32V34.376L93.419 31.136L93.371 27.872V25.088H96.923V35.84C96.923 38.24 96.299 40.008 95.051 41.144C93.803 42.28 92.011 42.848 89.675 42.848ZM89.099 37.376C87.899 37.376 86.811 37.12 85.835 36.608C84.875 36.08 84.099 35.352 83.507 34.424C82.931 33.48 82.643 32.384 82.643 31.136C82.643 29.872 82.931 28.776 83.507 27.848C84.099 26.904 84.875 26.176 85.835 25.664C86.811 25.152 87.899 24.896 89.099 24.896C90.187 24.896 91.147 25.12 91.979 25.568C92.811 26 93.459 26.68 93.923 27.608C94.387 28.52 94.619 29.696 94.619 31.136C94.619 32.56 94.387 33.736 93.923 34.664C93.459 35.576 92.811 36.256 91.979 36.704C91.147 37.152 90.187 37.376 89.099 37.376ZM89.843 34.304C90.499 34.304 91.083 34.176 91.595 33.92C92.107 33.648 92.507 33.272 92.795 32.792C93.083 32.312 93.227 31.76 93.227 31.136C93.227 30.496 93.083 29.944 92.795 29.48C92.507 29 92.107 28.632 91.595 28.376C91.083 28.104 90.499 27.968 89.843 27.968C89.187 27.968 88.603 28.104 88.091 28.376C87.579 28.632 87.171 29 86.867 29.48C86.579 29.944 86.435 30.496 86.435 31.136C86.435 31.76 86.579 32.312 86.867 32.792C87.171 33.272 87.579 33.648 88.091 33.92C88.603 34.176 89.187 34.304 89.843 34.304ZM106.916 38.192C105.444 38.192 104.148 37.904 103.028 37.328C101.924 36.752 101.068 35.968 100.46 34.976C99.8517 33.968 99.5477 32.824 99.5477 31.544C99.5477 30.248 99.8437 29.104 100.436 28.112C101.044 27.104 101.868 26.32 102.908 25.76C103.948 25.184 105.124 24.896 106.436 24.896C107.7 24.896 108.836 25.168 109.844 25.712C110.868 26.24 111.676 27.008 112.268 28.016C112.86 29.008 113.156 30.2 113.156 31.592C113.156 31.736 113.148 31.904 113.132 32.096C113.116 32.272 113.1 32.44 113.084 32.6H102.596V30.416H111.116L109.676 31.064C109.676 30.392 109.54 29.808 109.268 29.312C108.996 28.816 108.62 28.432 108.14 28.16C107.66 27.872 107.1 27.728 106.46 27.728C105.82 27.728 105.252 27.872 104.756 28.16C104.276 28.432 103.9 28.824 103.628 29.336C103.356 29.832 103.22 30.424 103.22 31.112V31.688C103.22 32.392 103.372 33.016 103.676 33.56C103.996 34.088 104.436 34.496 104.996 34.784C105.572 35.056 106.244 35.192 107.012 35.192C107.7 35.192 108.3 35.088 108.812 34.88C109.34 34.672 109.82 34.36 110.252 33.944L112.244 36.104C111.652 36.776 110.908 37.296 110.012 37.664C109.116 38.016 108.084 38.192 106.916 38.192Z" fill="#252B42"/>
</svg>
